<svg xmlns="http://www.w3.org/2000/svg" width="125.01" height="30" viewBox="0 0 125.01 30"><defs><style>.a{fill:#9c9434;}.b,.c{fill:#313132;}.b{font-size:5px;font-family:DINNextLTPro-Regular, DIN Next LT Pro;letter-spacing:0.685em;}</style></defs><g transform="translate(9719 112)"><g transform="translate(-9719 -112)"><path class="a" d="M23.358,17.695c-.3-6.448,6.548-6.748,7.962-2.174C33.7,34.939,12.122,39.513,6.168,30.665c3.572,4.574,22.25,1.8,17.19-12.971Z" transform="translate(-2.51 -4.99)"/><path class="a" d="M17.33,8.374c5.953.9,6.772-6.148,2.381-8.022C1.256-3.322-4.623,18.8,3.637,25.619-.455,21.57,3.414,2.526,17.33,8.374Z" transform="translate(0.022 0.057)"/></g><g transform="translate(-9682.599 -104.312)"><text class="b" transform="translate(0.609 19.318)"><tspan x="0" y="0">L I F E S T Y L E</tspan></text><g transform="translate(0 0)"><path class="c" d="M73.86,24.079A3.547,3.547,0,0,1,72.6,26.928a4.71,4.71,0,0,1-3.051,1.05H60.019V25.729h9.525a2.736,2.736,0,0,0,1.563-.45,1.43,1.43,0,0,0,.744-1.35,1.453,1.453,0,0,0-.744-1.275,2.7,2.7,0,0,0-1.563-.375h-5.8a4.2,4.2,0,0,1-2.753-.9A3.365,3.365,0,0,1,59.8,18.756a3.481,3.481,0,0,1,1.191-2.624,4.2,4.2,0,0,1,2.753-.9h9.451v2.249H63.666a1.606,1.606,0,0,0-1.042.375,1.071,1.071,0,0,0-.446.9.909.909,0,0,0,.446.9,1.7,1.7,0,0,0,1.042.3h5.953a4.71,4.71,0,0,1,3.051,1.05A4.666,4.666,0,0,1,73.86,24.079Z" transform="translate(-59.796 -15.232)"/><path class="c" d="M89.145,28.029H86.987v-12.6H89.22l-.074,12.6Zm10.492,0H97.405V22.781H90.038V20.531h7.367V15.358h2.232Z" transform="translate(-71.093 -15.283)"/><path class="c" d="M127.672,28.029h-2.753l-2.084-3.524h-5.953l1.339-2.174H121.5l-2.232-3.674-5.655,9.372H110.78l6.772-11.4a3.726,3.726,0,0,1,.744-.825,1.6,1.6,0,0,1,1.042-.45,1.767,1.767,0,0,1,1.042.45,3.92,3.92,0,0,1,.744.825Z" transform="translate(-80.821 -15.283)"/><path class="c" d="M153.723,26.9c0,.825-.3,1.2-.819,1.2a1.777,1.777,0,0,1-1.339-.75l-8.037-8.1v8.772H141.37V16.483a1.273,1.273,0,0,1,.223-.75.723.723,0,0,1,.67-.3,1.781,1.781,0,0,1,1.265.675l8.037,8.1V15.358H153.8V26.9Z" transform="translate(-93.328 -15.283)"/><path class="c" d="M178.048,17.607h-4.986V28.029H170.9V17.607h-4.986V15.358h12.055v2.249Z" transform="translate(-103.365 -15.283)"/><path class="c" d="M198.243,28.029h-2.828l-2.084-3.524h-5.953l1.339-2.174h3.274l-2.232-3.674L184.1,28.029h-2.828l6.772-11.4a3.726,3.726,0,0,1,.744-.825,1.6,1.6,0,0,1,1.042-.45,1.767,1.767,0,0,1,1.042.45,3.92,3.92,0,0,1,.744.825Z" transform="translate(-109.644 -15.283)"/></g></g></g></svg>